<svg 
 xmlns="http://www.w3.org/2000/svg"
 xmlns:xlink="http://www.w3.org/1999/xlink"
 width="690px" height="175px">
<defs>
<linearGradient id="PSgrad_0" x1="100%" x2="0%" y1="0%" y2="0%">
  <stop offset="0%" stop-color="rgb(234,31,0)" stop-opacity="1" />
  <stop offset="100%" stop-color="rgb(255,76,1)" stop-opacity="0" />
</linearGradient>
<linearGradient id="PSgrad_1" x1="0%" x2="100%" y1="0%" y2="0%">
  <stop offset="0%" stop-color="rgb(234,31,0)" stop-opacity="1" />
  <stop offset="100%" stop-color="rgb(255,76,1)" stop-opacity="0" />
</linearGradient>
</defs>
<path fill-rule="evenodd"  fill="rgb(238, 238, 238)"
 d="M689.695,149.839 L687.226,149.839 L680.398,142.089 L677.805,142.089 L677.805,149.839 L675.914,149.839 L675.914,132.933 L677.805,132.933 L677.805,140.433 L680.367,140.433 L686.570,132.933 L688.930,132.933 L681.992,141.136 L689.695,149.839 ZM667.536,149.089 C666.390,149.797 665.083,150.151 663.614,150.151 C661.374,150.151 659.554,149.362 658.153,147.784 C656.752,146.206 656.051,144.115 656.051,141.511 L656.051,141.136 C656.051,139.511 656.366,138.047 656.997,136.745 C657.627,135.443 658.518,134.430 659.669,133.706 C660.820,132.982 662.124,132.620 663.583,132.620 C665.833,132.620 667.655,133.409 669.051,134.987 C670.447,136.566 671.145,138.657 671.145,141.261 L671.145,141.651 C671.145,143.287 670.830,144.758 670.200,146.066 C669.570,147.373 668.682,148.381 667.536,149.089 ZM669.286,141.136 C669.286,139.844 669.046,138.662 668.567,137.589 C668.088,136.516 667.416,135.685 666.551,135.097 C665.687,134.508 664.697,134.214 663.583,134.214 C661.916,134.214 660.557,134.868 659.505,136.175 C658.452,137.482 657.926,139.193 657.926,141.308 L657.926,141.651 C657.926,143.672 658.450,145.331 659.497,146.628 C660.544,147.925 661.916,148.573 663.614,148.573 C665.301,148.573 666.669,147.925 667.716,146.628 C668.762,145.331 669.286,143.620 669.286,141.495 L669.286,141.136 ZM652.127,145.151 C652.127,146.641 651.577,147.795 650.478,148.612 C649.379,149.430 647.824,149.839 645.814,149.839 L638.595,149.839 L638.595,132.933 L644.798,132.933 C646.944,132.933 648.590,133.316 649.736,134.081 C650.882,134.847 651.455,135.969 651.455,137.448 C651.455,138.292 651.199,139.045 650.689,139.706 C650.179,140.368 649.434,140.849 648.455,141.151 C649.559,141.360 650.447,141.834 651.119,142.573 C651.791,143.313 652.127,144.172 652.127,145.151 ZM649.595,137.495 C649.595,136.464 649.191,135.712 648.384,135.237 C647.577,134.764 646.382,134.526 644.798,134.526 L640.455,134.526 L640.455,140.495 L645.189,140.495 C648.127,140.454 649.595,139.454 649.595,137.495 ZM649.127,142.886 C648.366,142.334 647.283,142.058 645.877,142.058 L640.455,142.058 L640.455,148.276 L645.877,148.276 C647.283,148.276 648.366,148.006 649.127,147.464 C649.887,146.922 650.267,146.141 650.267,145.120 C650.267,144.183 649.887,143.438 649.127,142.886 ZM630.123,149.089 C628.977,149.797 627.670,150.151 626.201,150.151 C623.962,150.151 622.141,149.362 620.741,147.784 C619.339,146.206 618.639,144.115 618.639,141.511 L618.639,141.136 C618.639,139.511 618.954,138.047 619.584,136.745 C620.214,135.443 621.105,134.430 622.256,133.706 C623.407,132.982 624.712,132.620 626.170,132.620 C628.420,132.620 630.243,133.409 631.639,134.987 C633.035,136.566 633.733,138.657 633.733,141.261 L633.733,141.651 C633.733,143.287 633.418,144.758 632.787,146.066 C632.157,147.373 631.269,148.381 630.123,149.089 ZM631.873,141.136 C631.873,139.844 631.634,138.662 631.155,137.589 C630.675,136.516 630.003,135.685 629.139,135.097 C628.274,134.508 627.285,134.214 626.170,134.214 C624.503,134.214 623.144,134.868 622.092,136.175 C621.040,137.482 620.514,139.193 620.514,141.308 L620.514,141.651 C620.514,143.672 621.037,145.331 622.084,146.628 C623.131,147.925 624.503,148.573 626.201,148.573 C627.889,148.573 629.256,147.925 630.303,146.628 C631.350,145.331 631.873,143.620 631.873,141.495 L631.873,141.136 ZM610.230,149.839 L608.355,149.839 L608.355,134.526 L602.433,134.526 L602.433,132.933 L616.386,132.933 L616.386,134.526 L610.230,134.526 L610.230,149.839 ZM596.367,132.933 L598.242,132.933 L598.242,149.839 L596.367,149.839 L596.367,132.933 ZM586.289,149.839 L579.617,149.839 L579.617,132.933 L581.476,132.933 L581.476,139.073 L586.351,139.073 C587.601,139.073 588.698,139.300 589.641,139.753 C590.583,140.206 591.297,140.834 591.781,141.636 C592.266,142.438 592.508,143.370 592.508,144.433 C592.508,146.068 591.948,147.378 590.828,148.362 C589.708,149.347 588.195,149.839 586.289,149.839 ZM589.516,141.737 C588.771,141.045 587.752,140.688 586.461,140.667 L581.476,140.667 L581.476,148.261 L586.320,148.261 C587.664,148.261 588.719,147.922 589.484,147.245 C590.250,146.568 590.633,145.641 590.633,144.464 C590.633,143.339 590.260,142.430 589.516,141.737 ZM571.497,149.128 C570.356,149.810 569.046,150.151 567.567,150.151 C565.338,150.151 563.533,149.409 562.153,147.925 C560.773,146.441 560.083,144.459 560.083,141.980 L560.083,140.480 C560.083,136.980 560.749,134.183 562.083,132.089 C563.416,129.995 565.312,128.745 567.770,128.339 C569.322,128.089 570.413,127.751 571.044,127.323 C571.674,126.896 571.989,126.313 571.989,125.573 L573.598,125.573 C573.598,126.448 573.416,127.172 573.051,127.745 C572.687,128.318 572.140,128.779 571.411,129.128 C570.682,129.477 569.567,129.771 568.067,130.011 C566.348,130.282 564.966,131.014 563.919,132.206 C562.872,133.399 562.192,134.995 561.880,136.995 C562.546,136.120 563.382,135.412 564.387,134.870 C565.393,134.329 566.536,134.058 567.817,134.058 C569.963,134.058 571.702,134.758 573.036,136.159 C574.369,137.560 575.036,139.417 575.036,141.730 L575.036,142.136 C575.036,143.667 574.731,145.045 574.122,146.269 C573.512,147.493 572.637,148.446 571.497,149.128 ZM573.161,141.620 C573.161,139.860 572.643,138.422 571.606,137.308 C570.570,136.193 569.213,135.636 567.536,135.636 C565.859,135.636 564.510,136.201 563.489,137.331 C562.468,138.462 561.958,139.933 561.958,141.745 L561.958,142.136 C561.958,144.042 562.473,145.592 563.505,146.784 C564.536,147.977 565.890,148.573 567.567,148.573 C569.255,148.573 570.609,147.972 571.630,146.769 C572.650,145.566 573.161,143.985 573.161,142.026 L573.161,141.620 ZM544.748,135.948 L535.623,149.839 L533.764,149.839 L533.764,132.933 L535.623,132.933 L535.623,146.839 L544.748,132.933 L546.623,132.933 L546.623,149.839 L544.748,149.839 L544.748,135.948 ZM520.101,145.151 C520.101,146.641 519.552,147.795 518.453,148.612 C517.354,149.430 515.799,149.839 513.789,149.839 L506.570,149.839 L506.570,132.933 L512.773,132.933 C514.919,132.933 516.565,133.316 517.711,134.081 C518.857,134.847 519.430,135.969 519.430,137.448 C519.430,138.292 519.174,139.045 518.664,139.706 C518.153,140.368 517.409,140.849 516.430,141.151 C517.534,141.360 518.422,141.834 519.094,142.573 C519.766,143.313 520.101,144.172 520.101,145.151 ZM517.570,137.495 C517.570,136.464 517.166,135.712 516.359,135.237 C515.552,134.764 514.357,134.526 512.773,134.526 L508.430,134.526 L508.430,140.495 L513.164,140.495 C516.101,140.454 517.570,139.454 517.570,137.495 ZM517.101,142.886 C516.341,142.334 515.258,142.058 513.851,142.058 L508.430,142.058 L508.430,148.276 L513.851,148.276 C515.258,148.276 516.341,148.006 517.101,147.464 C517.862,146.922 518.242,146.141 518.242,145.120 C518.242,144.183 517.862,143.438 517.101,142.886 ZM498.098,149.089 C496.952,149.797 495.645,150.151 494.176,150.151 C491.937,150.151 490.116,149.362 488.716,147.784 C487.314,146.206 486.614,144.115 486.614,141.511 L486.614,141.136 C486.614,139.511 486.929,138.047 487.559,136.745 C488.189,135.443 489.080,134.430 490.231,133.706 C491.382,132.982 492.687,132.620 494.145,132.620 C496.395,132.620 498.218,133.409 499.614,134.987 C501.010,136.566 501.708,138.657 501.708,141.261 L501.708,141.651 C501.708,143.287 501.393,144.758 500.762,146.066 C500.132,147.373 499.244,148.381 498.098,149.089 ZM499.848,141.136 C499.848,139.844 499.609,138.662 499.130,137.589 C498.650,136.516 497.978,135.685 497.114,135.097 C496.249,134.508 495.260,134.214 494.145,134.214 C492.478,134.214 491.119,134.868 490.067,136.175 C489.015,137.482 488.489,139.193 488.489,141.308 L488.489,141.651 C488.489,143.672 489.012,145.331 490.059,146.628 C491.106,147.925 492.478,148.573 494.176,148.573 C495.864,148.573 497.231,147.925 498.278,146.628 C499.325,145.331 499.848,143.620 499.848,141.495 L499.848,141.136 ZM476.267,150.151 C473.955,150.151 472.184,149.339 470.955,147.714 L470.955,156.339 L469.095,156.339 L469.095,132.933 L470.830,132.933 L470.923,135.323 C472.142,133.521 473.908,132.620 476.220,132.620 C478.241,132.620 479.827,133.386 480.978,134.917 C482.129,136.448 482.705,138.573 482.705,141.292 L482.705,141.558 C482.705,144.193 482.121,146.284 480.955,147.831 C479.788,149.378 478.225,150.151 476.267,150.151 ZM479.502,136.120 C478.616,134.870 477.382,134.245 475.798,134.245 C474.652,134.245 473.668,134.521 472.845,135.073 C472.022,135.626 471.392,136.428 470.955,137.480 L470.955,145.589 C471.402,146.558 472.043,147.297 472.877,147.808 C473.710,148.318 474.694,148.573 475.830,148.573 C477.402,148.573 478.629,147.946 479.509,146.691 C480.389,145.435 480.830,143.615 480.830,141.230 C480.830,139.073 480.387,137.370 479.502,136.120 ZM452.608,141.870 C452.608,143.787 453.157,145.383 454.256,146.659 C455.355,147.935 456.738,148.573 458.405,148.573 C459.405,148.573 460.287,148.391 461.053,148.026 C461.819,147.662 462.514,147.079 463.139,146.276 L464.311,147.167 C462.936,149.157 460.941,150.151 458.327,150.151 C456.889,150.151 455.589,149.797 454.428,149.089 C453.266,148.381 452.363,147.394 451.717,146.128 C451.071,144.862 450.748,143.443 450.748,141.870 L450.748,141.198 C450.748,139.573 451.063,138.110 451.694,136.808 C452.324,135.506 453.202,134.482 454.327,133.737 C455.452,132.993 456.670,132.620 457.983,132.620 C460.035,132.620 461.662,133.321 462.866,134.722 C464.069,136.123 464.670,138.037 464.670,140.464 L464.670,141.511 L452.608,141.511 L452.608,141.870 ZM462.811,139.917 L462.811,139.714 C462.759,138.089 462.295,136.766 461.420,135.745 C460.545,134.724 459.399,134.214 457.983,134.214 C456.577,134.214 455.391,134.730 454.428,135.761 C453.464,136.792 452.879,138.178 452.670,139.917 L462.811,139.917 ZM444.105,142.089 L434.995,142.089 L434.995,149.839 L433.120,149.839 L433.120,132.933 L434.995,132.933 L434.995,140.511 L444.105,140.511 L444.105,132.933 L445.980,132.933 L445.980,149.839 L444.105,149.839 L444.105,142.089 ZM425.320,135.948 L416.195,149.839 L414.336,149.839 L414.336,132.933 L416.195,132.933 L416.195,146.839 L425.320,132.933 L427.195,132.933 L427.195,149.839 L425.320,149.839 L425.320,135.948 ZM420.711,130.855 C419.357,130.855 418.266,130.487 417.437,129.753 C416.609,129.019 416.195,128.047 416.195,126.839 L417.789,126.839 C417.789,127.704 418.047,128.365 418.562,128.823 C419.078,129.282 419.794,129.511 420.711,129.511 C421.627,129.511 422.344,129.271 422.859,128.792 C423.375,128.313 423.633,127.662 423.633,126.839 L425.226,126.839 C425.226,128.037 424.818,129.006 424.000,129.745 C423.182,130.485 422.086,130.855 420.711,130.855 ZM397.708,141.870 C397.708,143.787 398.257,145.383 399.356,146.659 C400.455,147.935 401.838,148.573 403.505,148.573 C404.505,148.573 405.387,148.391 406.153,148.026 C406.919,147.662 407.614,147.079 408.239,146.276 L409.411,147.167 C408.036,149.157 406.041,150.151 403.426,150.151 C401.989,150.151 400.689,149.797 399.528,149.089 C398.366,148.381 397.463,147.394 396.817,146.128 C396.171,144.862 395.848,143.443 395.848,141.870 L395.848,141.198 C395.848,139.573 396.163,138.110 396.794,136.808 C397.424,135.506 398.301,134.482 399.426,133.737 C400.551,132.993 401.770,132.620 403.083,132.620 C405.135,132.620 406.762,133.321 407.966,134.722 C409.169,136.123 409.770,138.037 409.770,140.464 L409.770,141.511 L397.708,141.511 L397.708,141.870 ZM407.911,139.917 L407.911,139.714 C407.859,138.089 407.395,136.766 406.520,135.745 C405.645,134.724 404.499,134.214 403.083,134.214 C401.676,134.214 400.491,134.730 399.528,135.761 C398.564,136.792 397.978,138.178 397.770,139.917 L407.911,139.917 ZM388.002,149.839 L386.127,149.839 L386.127,134.526 L380.205,134.526 L380.205,132.933 L394.158,132.933 L394.158,134.526 L388.002,134.526 L388.002,149.839 ZM374.342,142.089 L365.233,142.089 L365.233,149.839 L363.358,149.839 L363.358,132.933 L365.233,132.933 L365.233,140.511 L374.342,140.511 L374.342,132.933 L376.217,132.933 L376.217,149.839 L374.342,149.839 L374.342,142.089 ZM354.964,149.089 C353.818,149.797 352.511,150.151 351.042,150.151 C348.802,150.151 346.982,149.362 345.581,147.784 C344.180,146.206 343.480,144.115 343.480,141.511 L343.480,141.136 C343.480,139.511 343.795,138.047 344.425,136.745 C345.055,135.443 345.946,134.430 347.097,133.706 C348.248,132.982 349.552,132.620 351.011,132.620 C353.261,132.620 355.084,133.409 356.480,134.987 C357.875,136.566 358.573,138.657 358.573,141.261 L358.573,141.651 C358.573,143.287 358.258,144.758 357.628,146.066 C356.998,147.373 356.110,148.381 354.964,149.089 ZM356.714,141.136 C356.714,139.844 356.474,138.662 355.995,137.589 C355.516,136.516 354.844,135.685 353.980,135.097 C353.115,134.508 352.125,134.214 351.011,134.214 C349.344,134.214 347.985,134.868 346.933,136.175 C345.881,137.482 345.355,139.193 345.355,141.308 L345.355,141.651 C345.355,143.672 345.878,145.331 346.925,146.628 C347.972,147.925 349.344,148.573 351.042,148.573 C352.730,148.573 354.097,147.925 355.144,146.628 C356.191,145.331 356.714,143.620 356.714,141.495 L356.714,141.136 ZM339.133,149.839 L332.305,142.089 L329.711,142.089 L329.711,149.839 L327.820,149.839 L327.820,132.933 L329.711,132.933 L329.711,140.433 L332.273,140.433 L338.477,132.933 L340.836,132.933 L333.898,141.136 L341.602,149.839 L339.133,149.839 ZM311.502,147.480 C310.845,148.334 310.009,148.993 308.994,149.456 C307.978,149.920 306.902,150.151 305.767,150.151 C304.142,150.151 302.827,149.698 301.822,148.792 C300.816,147.886 300.314,146.740 300.314,145.355 C300.314,143.709 300.999,142.407 302.369,141.448 C303.738,140.490 305.647,140.011 308.095,140.011 L311.486,140.011 L311.486,138.089 C311.486,136.881 311.113,135.930 310.369,135.237 C309.624,134.545 308.538,134.198 307.111,134.198 C305.809,134.198 304.731,134.532 303.877,135.198 C303.022,135.865 302.595,136.667 302.595,137.605 L300.720,137.589 C300.720,136.245 301.345,135.081 302.595,134.097 C303.845,133.112 305.382,132.620 307.205,132.620 C309.090,132.620 310.577,133.092 311.666,134.034 C312.754,134.977 313.314,136.292 313.345,137.980 L313.345,145.980 C313.345,147.615 313.517,148.839 313.861,149.651 L313.861,149.839 L311.861,149.839 C311.673,149.308 311.554,148.521 311.502,147.480 ZM311.486,141.448 L308.142,141.448 C306.277,141.469 304.819,141.810 303.767,142.472 C302.715,143.133 302.189,144.042 302.189,145.198 C302.189,146.146 302.541,146.933 303.244,147.558 C303.947,148.183 304.861,148.495 305.986,148.495 C307.236,148.495 308.353,148.193 309.337,147.589 C310.322,146.985 311.038,146.178 311.486,145.167 L311.486,141.448 ZM294.920,149.839 L282.217,149.839 L282.217,154.808 L280.420,154.808 L280.436,148.261 L281.655,148.261 L282.483,147.183 C283.795,145.401 284.550,142.797 284.748,139.370 L285.045,132.933 L295.030,132.933 L295.030,148.261 L296.780,148.261 L296.780,154.808 L294.920,154.808 L294.920,149.839 ZM293.155,134.683 L286.827,134.683 L286.623,139.073 C286.436,143.105 285.498,146.167 283.811,148.261 L293.155,148.261 L293.155,134.683 ZM274.370,142.089 L265.261,142.089 L265.261,149.839 L263.386,149.839 L263.386,132.933 L265.261,132.933 L265.261,140.511 L274.370,140.511 L274.370,132.933 L276.245,132.933 L276.245,149.839 L274.370,149.839 L274.370,142.089 ZM246.758,141.870 C246.758,143.787 247.307,145.383 248.406,146.659 C249.505,147.935 250.888,148.573 252.555,148.573 C253.555,148.573 254.437,148.391 255.203,148.026 C255.969,147.662 256.664,147.079 257.289,146.276 L258.461,147.167 C257.086,149.157 255.091,150.151 252.477,150.151 C251.039,150.151 249.739,149.797 248.578,149.089 C247.416,148.381 246.513,147.394 245.867,146.128 C245.221,144.862 244.898,143.443 244.898,141.870 L244.898,141.198 C244.898,139.573 245.213,138.110 245.844,136.808 C246.474,135.506 247.352,134.482 248.477,133.737 C249.602,132.993 250.820,132.620 252.133,132.620 C254.185,132.620 255.812,133.321 257.016,134.722 C258.219,136.123 258.820,138.037 258.820,140.464 L258.820,141.511 L246.758,141.511 L246.758,141.870 ZM256.961,139.917 L256.961,139.714 C256.909,138.089 256.445,136.766 255.570,135.745 C254.695,134.724 253.549,134.214 252.133,134.214 C250.727,134.214 249.541,134.730 248.578,135.761 C247.614,136.792 247.029,138.178 246.820,139.917 L256.961,139.917 ZM234.552,150.151 C232.239,150.151 230.468,149.339 229.239,147.714 L229.239,156.339 L227.380,156.339 L227.380,132.933 L229.114,132.933 L229.208,135.323 C230.427,133.521 232.192,132.620 234.505,132.620 C236.525,132.620 238.111,133.386 239.262,134.917 C240.413,136.448 240.989,138.573 240.989,141.292 L240.989,141.558 C240.989,144.193 240.406,146.284 239.239,147.831 C238.072,149.378 236.510,150.151 234.552,150.151 ZM237.786,136.120 C236.900,134.870 235.666,134.245 234.083,134.245 C232.937,134.245 231.952,134.521 231.130,135.073 C230.307,135.626 229.677,136.428 229.239,137.480 L229.239,145.589 C229.687,146.558 230.327,147.297 231.161,147.808 C231.994,148.318 232.979,148.573 234.114,148.573 C235.687,148.573 236.913,147.946 237.794,146.691 C238.674,145.435 239.114,143.615 239.114,141.230 C239.114,139.073 238.671,137.370 237.786,136.120 ZM219.767,147.480 C219.111,148.334 218.275,148.993 217.259,149.456 C216.244,149.920 215.168,150.151 214.033,150.151 C212.408,150.151 211.093,149.698 210.087,148.792 C209.082,147.886 208.580,146.740 208.580,145.355 C208.580,143.709 209.264,142.407 210.634,141.448 C212.004,140.490 213.913,140.011 216.361,140.011 L219.752,140.011 L219.752,138.089 C219.752,136.881 219.379,135.930 218.634,135.237 C217.889,134.545 216.804,134.198 215.377,134.198 C214.074,134.198 212.996,134.532 212.142,135.198 C211.288,135.865 210.861,136.667 210.861,137.605 L208.986,137.589 C208.986,136.245 209.611,135.081 210.861,134.097 C212.111,133.112 213.647,132.620 215.470,132.620 C217.356,132.620 218.843,133.092 219.931,134.034 C221.020,134.977 221.580,136.292 221.611,137.980 L221.611,145.980 C221.611,147.615 221.783,148.839 222.127,149.651 L222.127,149.839 L220.127,149.839 C219.939,149.308 219.819,148.521 219.767,147.480 ZM219.752,141.448 L216.408,141.448 C214.543,141.469 213.085,141.810 212.033,142.472 C210.981,143.133 210.455,144.042 210.455,145.198 C210.455,146.146 210.806,146.933 211.509,147.558 C212.212,148.183 213.127,148.495 214.252,148.495 C215.502,148.495 216.619,148.193 217.603,147.589 C218.587,146.985 219.304,146.178 219.752,145.167 L219.752,141.448 Z"/>
<path fill-rule="evenodd"  fill="rgb(249, 95, 3)"
 d="M686.401,108.443 C684.259,110.434 681.334,111.430 677.624,111.430 C673.972,111.430 671.071,110.463 668.923,108.529 C666.775,106.596 665.679,103.939 665.636,100.559 L665.636,79.719 L672.081,79.719 L672.081,100.365 C672.081,102.414 672.572,103.907 673.553,104.845 C674.534,105.783 675.891,106.252 677.624,106.252 C681.248,106.252 683.088,104.347 683.146,100.537 L683.146,79.719 L689.612,79.719 L689.612,100.322 C689.612,103.746 688.542,106.453 686.401,108.443 ZM648.860,99.549 L643.725,99.549 L643.725,111.000 L637.280,111.000 L637.280,79.719 L648.903,79.719 C652.599,79.719 655.449,80.543 657.454,82.189 C659.459,83.837 660.462,86.164 660.462,89.172 C660.462,91.306 660.000,93.086 659.076,94.511 C658.152,95.936 656.752,97.071 654.876,97.916 L661.643,110.699 L661.643,111.000 L654.725,111.000 L648.860,99.549 ZM652.760,86.207 C651.922,85.362 650.636,84.939 648.903,84.939 L643.725,84.939 L643.725,94.328 L648.925,94.328 C650.543,94.328 651.796,93.917 652.684,93.093 C653.572,92.269 654.016,91.134 654.016,89.687 C654.016,88.212 653.598,87.052 652.760,86.207 ZM627.209,111.236 C626.192,111.236 625.354,110.932 624.695,110.323 C624.036,109.715 623.707,108.923 623.707,107.949 C623.707,106.961 624.040,106.159 624.706,105.543 C625.372,104.927 626.206,104.619 627.209,104.619 C628.226,104.619 629.067,104.927 629.733,105.543 C630.399,106.159 630.732,106.961 630.732,107.949 C630.732,108.923 630.403,109.715 629.744,110.323 C629.085,110.932 628.240,111.236 627.209,111.236 Z"/>
<path fill="url(#PSgrad_0)"
 d="M686.401,108.443 C684.259,110.434 681.334,111.430 677.624,111.430 C673.972,111.430 671.071,110.463 668.923,108.529 C666.775,106.596 665.679,103.939 665.636,100.559 L665.636,79.719 L672.081,79.719 L672.081,100.365 C672.081,102.414 672.572,103.907 673.553,104.845 C674.534,105.783 675.891,106.252 677.624,106.252 C681.248,106.252 683.088,104.347 683.146,100.537 L683.146,79.719 L689.612,79.719 L689.612,100.322 C689.612,103.746 688.542,106.453 686.401,108.443 ZM648.860,99.549 L643.725,99.549 L643.725,111.000 L637.280,111.000 L637.280,79.719 L648.903,79.719 C652.599,79.719 655.449,80.543 657.454,82.189 C659.459,83.837 660.462,86.164 660.462,89.172 C660.462,91.306 660.000,93.086 659.076,94.511 C658.152,95.936 656.752,97.071 654.876,97.916 L661.643,110.699 L661.643,111.000 L654.725,111.000 L648.860,99.549 ZM652.760,86.207 C651.922,85.362 650.636,84.939 648.903,84.939 L643.725,84.939 L643.725,94.328 L648.925,94.328 C650.543,94.328 651.796,93.917 652.684,93.093 C653.572,92.269 654.016,91.134 654.016,89.687 C654.016,88.212 653.598,87.052 652.760,86.207 ZM627.209,111.236 C626.192,111.236 625.354,110.932 624.695,110.323 C624.036,109.715 623.707,108.923 623.707,107.949 C623.707,106.961 624.040,106.159 624.706,105.543 C625.372,104.927 626.206,104.619 627.209,104.619 C628.226,104.619 629.067,104.927 629.733,105.543 C630.399,106.159 630.732,106.961 630.732,107.949 C630.732,108.923 630.403,109.715 629.744,110.323 C629.085,110.932 628.240,111.236 627.209,111.236 Z"/>
<path fill-rule="evenodd"  fill="rgb(249, 95, 3)"
 d="M614.447,55.325 L614.447,111.000 L600.678,111.000 L600.678,55.325 L580.482,55.325 L580.482,44.172 L634.918,44.172 L634.918,55.325 L614.447,55.325 ZM531.384,67.029 L531.384,111.000 L517.614,111.000 L517.614,44.172 L531.384,44.172 L558.234,88.234 L558.234,44.172 L571.958,44.172 L571.958,111.000 L558.188,111.000 L531.384,67.029 ZM492.925,107.879 C488.594,110.572 483.630,111.918 478.031,111.918 C472.492,111.918 467.550,110.587 463.205,107.925 C458.860,105.263 455.494,101.461 453.108,96.519 C450.721,91.578 449.512,85.894 449.482,79.468 L449.482,76.163 C449.482,69.585 450.667,63.793 453.039,58.791 C455.410,53.788 458.760,49.948 463.091,47.270 C467.420,44.593 472.369,43.254 477.939,43.254 C483.508,43.254 488.457,44.593 492.787,47.270 C497.116,49.948 500.467,53.788 502.839,58.791 C505.210,63.793 506.396,69.569 506.396,76.117 L506.396,79.101 C506.396,85.680 505.233,91.447 502.908,96.404 C500.582,101.361 497.254,105.187 492.925,107.879 ZM492.443,76.071 C492.443,69.065 491.188,63.740 488.679,60.099 C486.170,56.458 482.590,54.637 477.939,54.637 C473.318,54.637 469.753,56.435 467.244,60.030 C464.735,63.626 463.465,68.896 463.435,75.842 L463.435,79.101 C463.435,85.924 464.689,91.218 467.199,94.981 C469.707,98.745 473.318,100.627 478.031,100.627 C482.651,100.627 486.201,98.814 488.679,95.188 C491.158,91.562 492.412,86.277 492.443,79.330 L492.443,76.071 ZM432.110,111.000 L414.944,84.195 L407.784,91.906 L407.784,111.000 L394.014,111.000 L394.014,44.172 L407.784,44.172 L407.784,74.465 L413.842,66.157 L430.871,44.172 L447.807,44.172 L424.078,73.868 L448.496,111.000 L432.110,111.000 ZM338.846,44.172 L383.551,44.172 L383.551,55.325 L352.615,55.325 L352.615,71.252 L379.053,71.252 L379.053,82.038 L352.615,82.038 L352.615,99.938 L383.642,99.938 L383.642,111.000 L338.846,111.000 L338.846,44.172 ZM302.477,86.536 L291.507,86.536 L291.507,111.000 L277.738,111.000 L277.738,44.172 L302.569,44.172 C310.463,44.172 316.552,45.932 320.836,49.450 C325.120,52.969 327.262,57.941 327.262,64.367 C327.262,68.927 326.275,72.729 324.302,75.773 C322.328,78.818 319.337,81.243 315.328,83.048 L329.786,110.357 L329.786,111.000 L315.007,111.000 L302.477,86.536 ZM310.807,58.033 C309.017,56.228 306.271,55.325 302.569,55.325 L291.507,55.325 L291.507,75.383 L302.615,75.383 C306.072,75.383 308.749,74.504 310.647,72.744 C312.544,70.984 313.493,68.560 313.493,65.469 C313.493,62.318 312.598,59.839 310.807,58.033 ZM250.695,97.230 L226.553,97.230 L221.963,111.000 L207.321,111.000 L232.198,44.172 L244.958,44.172 L269.973,111.000 L255.331,111.000 L250.695,97.230 ZM238.578,61.062 L230.271,86.077 L246.978,86.077 L238.578,61.062 Z"/>
<path fill="url(#PSgrad_0)"
 d="M614.447,55.325 L614.447,111.000 L600.678,111.000 L600.678,55.325 L580.482,55.325 L580.482,44.172 L634.918,44.172 L634.918,55.325 L614.447,55.325 ZM531.384,67.029 L531.384,111.000 L517.614,111.000 L517.614,44.172 L531.384,44.172 L558.234,88.234 L558.234,44.172 L571.958,44.172 L571.958,111.000 L558.188,111.000 L531.384,67.029 ZM492.925,107.879 C488.594,110.572 483.630,111.918 478.031,111.918 C472.492,111.918 467.550,110.587 463.205,107.925 C458.860,105.263 455.494,101.461 453.108,96.519 C450.721,91.578 449.512,85.894 449.482,79.468 L449.482,76.163 C449.482,69.585 450.667,63.793 453.039,58.791 C455.410,53.788 458.760,49.948 463.091,47.270 C467.420,44.593 472.369,43.254 477.939,43.254 C483.508,43.254 488.457,44.593 492.787,47.270 C497.116,49.948 500.467,53.788 502.839,58.791 C505.210,63.793 506.396,69.569 506.396,76.117 L506.396,79.101 C506.396,85.680 505.233,91.447 502.908,96.404 C500.582,101.361 497.254,105.187 492.925,107.879 ZM492.443,76.071 C492.443,69.065 491.188,63.740 488.679,60.099 C486.170,56.458 482.590,54.637 477.939,54.637 C473.318,54.637 469.753,56.435 467.244,60.030 C464.735,63.626 463.465,68.896 463.435,75.842 L463.435,79.101 C463.435,85.924 464.689,91.218 467.199,94.981 C469.707,98.745 473.318,100.627 478.031,100.627 C482.651,100.627 486.201,98.814 488.679,95.188 C491.158,91.562 492.412,86.277 492.443,79.330 L492.443,76.071 ZM432.110,111.000 L414.944,84.195 L407.784,91.906 L407.784,111.000 L394.014,111.000 L394.014,44.172 L407.784,44.172 L407.784,74.465 L413.842,66.157 L430.871,44.172 L447.807,44.172 L424.078,73.868 L448.496,111.000 L432.110,111.000 ZM338.846,44.172 L383.551,44.172 L383.551,55.325 L352.615,55.325 L352.615,71.252 L379.053,71.252 L379.053,82.038 L352.615,82.038 L352.615,99.938 L383.642,99.938 L383.642,111.000 L338.846,111.000 L338.846,44.172 ZM302.477,86.536 L291.507,86.536 L291.507,111.000 L277.738,111.000 L277.738,44.172 L302.569,44.172 C310.463,44.172 316.552,45.932 320.836,49.450 C325.120,52.969 327.262,57.941 327.262,64.367 C327.262,68.927 326.275,72.729 324.302,75.773 C322.328,78.818 319.337,81.243 315.328,83.048 L329.786,110.357 L329.786,111.000 L315.007,111.000 L302.477,86.536 ZM310.807,58.033 C309.017,56.228 306.271,55.325 302.569,55.325 L291.507,55.325 L291.507,75.383 L302.615,75.383 C306.072,75.383 308.749,74.504 310.647,72.744 C312.544,70.984 313.493,68.560 313.493,65.469 C313.493,62.318 312.598,59.839 310.807,58.033 ZM250.695,97.230 L226.553,97.230 L221.963,111.000 L207.321,111.000 L232.198,44.172 L244.958,44.172 L269.973,111.000 L255.331,111.000 L250.695,97.230 ZM238.578,61.062 L230.271,86.077 L246.978,86.077 L238.578,61.062 Z"/>
<path fill-rule="evenodd"  fill="rgb(231, 103, 0)"
 d="M98.400,158.600 L156.000,148.500 L156.000,163.200 L98.400,174.200 L98.400,158.600 Z"/>
<path fill="url(#PSgrad_1)"
 d="M98.400,158.600 L156.000,148.500 L156.000,163.200 L98.400,174.200 L98.400,158.600 Z"/>
<path fill-rule="evenodd"  fill="rgb(231, 103, 0)"
 d="M99.600,158.600 L-0.000,139.500 L-0.000,154.200 L99.600,174.200 L99.600,158.600 Z"/>
<path fill="url(#PSgrad_0)"
 d="M99.600,158.600 L-0.000,139.500 L-0.000,154.200 L99.600,174.200 L99.600,158.600 Z"/>
<path fill-rule="evenodd"  fill="rgb(232, 102, 0)"
 d="M156.000,142.700 L100.000,151.652 L100.000,151.700 L99.863,151.674 L99.700,151.700 L99.700,151.643 L-0.000,132.700 L-0.000,128.700 L99.867,146.776 L156.000,138.700 L156.000,142.700 Z"/>
<path fill-rule="evenodd"  fill="rgb(215, 209, 209)"
 d="M99.400,24.600 L156.000,53.500 L156.000,133.200 L99.400,141.200 L99.400,24.600 Z"/>
<path fill-rule="evenodd"  fill="rgb(238, 238, 238)"
 d="M99.600,24.600 L-0.000,63.500 L-0.000,123.200 L99.600,141.200 L99.600,24.600 Z"/>
<path fill-rule="evenodd"  fill="rgb(231, 103, 0)"
 d="M100.400,0.800 L156.000,30.700 L156.000,45.400 L100.400,16.400 L100.400,0.800 Z"/>
<path fill="url(#PSgrad_1)"
 d="M100.400,0.800 L156.000,30.700 L156.000,45.400 L100.400,16.400 L100.400,0.800 Z"/>
<path fill-rule="evenodd"  fill="rgb(231, 103, 0)"
 d="M100.600,0.800 L0.000,40.700 L0.000,55.400 L100.600,16.400 L100.600,0.800 Z"/>
<path fill="url(#PSgrad_0)"
 d="M100.600,0.800 L0.000,40.700 L0.000,55.400 L100.600,16.400 L100.600,0.800 Z"/>
</svg>